<svg width="18" height="18" viewBox="0 0 18 18" fill="none" xmlns="http://www.w3.org/2000/svg">
<g clip-path="url(#clip0_8_99)">
<path d="M9 2.25C5.27344 2.25 2.25 5.27344 2.25 9C2.25 12.7266 5.27344 15.75 9 15.75C9.62227 15.75 10.125 16.2527 10.125 16.875C10.125 17.4973 9.62227 18 9 18C4.02891 18 0 13.9711 0 9C0 4.02891 4.02891 0 9 0C13.9711 0 18 4.02891 18 9V10.125C18 11.9883 16.4883 13.5 14.625 13.5C13.5949 13.5 12.6703 13.0359 12.0516 12.3082C11.25 13.0465 10.1777 13.5 9 13.5C6.51445 13.5 4.5 11.4855 4.5 9C4.5 6.51445 6.51445 4.5 9 4.5C9.98086 4.5 10.8879 4.81289 11.6262 5.34727C11.8266 5.17148 12.0867 5.0625 12.375 5.0625C12.9973 5.0625 13.5 5.56523 13.5 6.1875V9V10.125C13.5 10.7473 14.0027 11.25 14.625 11.25C15.2473 11.25 15.75 10.7473 15.75 10.125V9C15.75 5.27344 12.7266 2.25 9 2.25ZM11.25 9C11.25 8.40326 11.0129 7.83097 10.591 7.40901C10.169 6.98705 9.59674 6.75 9 6.75C8.40326 6.75 7.83097 6.98705 7.40901 7.40901C6.98705 7.83097 6.75 8.40326 6.75 9C6.75 9.59674 6.98705 10.169 7.40901 10.591C7.83097 11.0129 8.40326 11.25 9 11.25C9.59674 11.25 10.169 11.0129 10.591 10.591C11.0129 10.169 11.25 9.59674 11.25 9Z" fill="white"/>
</g>
<defs>
<clipPath id="clip0_8_99">
<rect width="18" height="18" fill="white"/>
</clipPath>
</defs>
</svg>
