<?xml version="1.0" encoding="UTF-8"?>
<svg id="Capa_1" xmlns="http://www.w3.org/2000/svg" viewBox="0 0 1000 1000">
  <defs>
    <style>
      .cls-1 {
        opacity: .38;
      }

      .cls-1, .cls-2 {
        fill: #1a1a1a;
      }

      .cls-2 {
        stroke: #fff;
        stroke-miterlimit: 10;
        stroke-width: .25px;
      }
    </style>
  </defs>
  <path class="cls-2" d="M986,497.59v26.01c-151.92,23.68-269.72,150.5-279.51,306.65h-27.22c-10.83-173.4-154.85-310.66-330.97-310.66-9.62,0-19.11.43-28.51,1.21-1.25.13-2.5.22-3.71.35v-25.67c1.25-.17,2.5-.39,3.71-.56,158.69-23.9,280.51-160.16,281.8-325.24h25.97c1.42,181.94,149.38,328.99,331.66,328.99,9.02,0,17.99-.39,26.79-1.08Z"/>
  <path class="cls-1" d="M957.67,497.59v26.01c-140.93,23.68-250.21,150.5-259.29,306.65h-346.46c-10.04-173.4-143.65-310.66-307.03-310.66-8.92,0-17.73.43-26.45,1.21-1.16.13-2.32.22-3.44.35v-25.67s.01-.02.02-.03c148.88-22.33,263.62-159.42,264.83-325.77h345.3c1.32,181.94,138.57,328.99,307.67,328.99,8.36,0,16.69-.39,24.85-1.08Z"/>
</svg>