<svg width="18" height="21" viewBox="0 0 18 21" fill="none" xmlns="http://www.w3.org/2000/svg">
<g clip-path="url(#clip0_8_109)">
<path d="M9.00386 5.7833C6.4485 5.7833 4.38734 7.8874 4.38734 10.496C4.38734 13.1046 6.4485 15.2087 9.00386 15.2087C11.5592 15.2087 13.6204 13.1046 13.6204 10.496C13.6204 7.8874 11.5592 5.7833 9.00386 5.7833ZM9.00386 13.5599C7.35252 13.5599 6.00252 12.1858 6.00252 10.496C6.00252 8.80615 7.3485 7.43213 9.00386 7.43213C10.6592 7.43213 12.0052 8.80615 12.0052 10.496C12.0052 12.1858 10.6552 13.5599 9.00386 13.5599ZM14.886 5.59053C14.886 6.20166 14.4039 6.68975 13.8092 6.68975C13.2106 6.68975 12.7324 6.19756 12.7324 5.59053C12.7324 4.9835 13.2146 4.49131 13.8092 4.49131C14.4039 4.49131 14.886 4.9835 14.886 5.59053ZM17.9436 6.70615C17.8753 5.23369 17.5458 3.92939 16.4891 2.85479C15.4364 1.78018 14.1588 1.44385 12.7164 1.37002C11.2298 1.28389 6.77395 1.28389 5.28734 1.37002C3.84895 1.43975 2.57127 1.77607 1.51457 2.85068C0.457875 3.92529 0.132429 5.22959 0.0601074 6.70205C-0.0242676 8.21963 -0.0242676 12.7683 0.0601074 14.2858C0.128411 15.7583 0.457875 17.0626 1.51457 18.1372C2.57127 19.2118 3.84493 19.5481 5.28734 19.622C6.77395 19.7081 11.2298 19.7081 12.7164 19.622C14.1588 19.5522 15.4364 19.2159 16.4891 18.1372C17.5418 17.0626 17.8713 15.7583 17.9436 14.2858C18.028 12.7683 18.028 8.22373 17.9436 6.70615ZM16.0231 15.9142C15.7097 16.7181 15.103 17.3374 14.3114 17.6614C13.1262 18.1413 10.3137 18.0306 9.00386 18.0306C7.69404 18.0306 4.87752 18.1372 3.69627 17.6614C2.90877 17.3415 2.30207 16.7222 1.98466 15.9142C1.51457 14.7042 1.62305 11.8331 1.62305 10.496C1.62305 9.15889 1.51859 6.28369 1.98466 5.07783C2.29805 4.27393 2.90475 3.65459 3.69627 3.33057C4.88154 2.85068 7.69404 2.96143 9.00386 2.96143C10.3137 2.96143 13.1302 2.85479 14.3114 3.33057C15.0989 3.65049 15.7056 4.26982 16.0231 5.07783C16.4931 6.28779 16.3847 9.15889 16.3847 10.496C16.3847 11.8331 16.4931 14.7083 16.0231 15.9142Z" fill="white"/>
</g>
<defs>
<clipPath id="clip0_8_109">
<rect width="18" height="21" fill="white"/>
</clipPath>
</defs>
</svg>
