<svg width="15" height="17" viewBox="0 0 15 17" fill="none" xmlns="http://www.w3.org/2000/svg">
<path d="M3.35826 14.875H0.247768V4.94394H3.35826V14.875ZM1.80134 3.58926C0.80692 3.58926 0 2.77246 0 1.78633C0 1.31256 0.189783 0.858205 0.5276 0.523203C0.865417 0.188202 1.32359 0 1.80134 0C2.27908 0 2.73726 0.188202 3.07508 0.523203C3.4129 0.858205 3.60268 1.31256 3.60268 1.78633C3.60268 2.77246 2.79576 3.58926 1.80134 3.58926ZM14.9967 14.875H11.8929V10.0406C11.8929 8.88848 11.8694 7.41094 10.2757 7.41094C8.65848 7.41094 8.41071 8.66269 8.41071 9.95762V14.875H5.30357V4.94394H8.28683V6.29863H8.33036C8.74554 5.51836 9.76005 4.69492 11.2734 4.69492C14.4208 4.69492 15 6.7502 15 9.41973V14.875H14.9967Z" fill="white"/>
</svg>
