<svg width="16" height="19" viewBox="0 0 16 19" fill="none" xmlns="http://www.w3.org/2000/svg">
<g clip-path="url(#clip0_8_105)">
<path d="M16 7.78926C14.4271 7.79276 12.893 7.2826 11.6143 6.33086V12.966C11.6139 14.1949 11.2525 15.3943 10.5783 16.404C9.90406 17.4136 8.94925 18.1853 7.84153 18.6158C6.73381 19.0463 5.526 19.1151 4.37962 18.813C3.23325 18.5109 2.20296 17.8523 1.42657 16.9253C0.650172 15.9984 0.164676 14.8472 0.0350123 13.6257C-0.0946517 12.4042 0.137698 11.1708 0.700986 10.0902C1.26427 9.00971 2.13164 8.13365 3.1871 7.57921C4.24255 7.02478 5.43576 6.81841 6.60715 6.9877V10.3238C6.07153 10.1486 5.49633 10.1538 4.96368 10.3385C4.43103 10.5232 3.96817 10.8781 3.64118 11.3524C3.31419 11.8267 3.1398 12.3963 3.1429 12.9797C3.14601 13.5632 3.32645 14.1307 3.65846 14.6013C3.99048 15.0718 4.45709 15.4214 4.99167 15.5999C5.52625 15.7785 6.10147 15.777 6.63519 15.5957C7.16892 15.4144 7.63385 15.0624 7.96362 14.5902C8.29338 14.1179 8.47111 13.5495 8.47143 12.966V0H11.6143C11.6125 0.276192 11.6352 0.551966 11.6821 0.823828C11.7914 1.42983 12.0185 2.0063 12.3495 2.51802C12.6805 3.02974 13.1084 3.46595 13.6071 3.8C14.3171 4.28719 15.1492 4.54659 16 4.5459V7.78926Z" fill="white"/>
</g>
<defs>
<clipPath id="clip0_8_105">
<rect width="16" height="19" fill="white"/>
</clipPath>
</defs>
</svg>
